<svg width="139" height="139" viewBox="0 0 139 139" fill="none" xmlns="http://www.w3.org/2000/svg">
<rect width="139" height="139" fill="#36BECE"/>
<path d="M59.3201 37C59.6521 37 59.9577 37.1139 60.2005 37.3052C60.2248 37.3033 60.2493 37.3024 60.2741 37.3024H82.1857C82.9913 37.3024 83.4342 38.2467 82.9228 38.8742L77.7336 45.2425C77.4446 45.5972 77.4446 46.1084 77.7336 46.4631L82.9228 52.8312C83.4342 53.4588 82.9913 54.4031 82.1857 54.4031H60.7511V63.265C60.7511 63.519 60.6859 63.7576 60.5716 63.965L89.4302 100.439C89.9286 101.069 89.4836 102 88.6844 102H29.9558C29.1565 102 28.7116 101.069 29.2099 100.439L58.0685 63.965C57.9542 63.7576 57.8891 63.519 57.8891 63.265V38.4424C57.8891 37.6458 58.5297 37 59.3201 37Z" fill="#0E0E0E"/>
<path d="M90.7113 71.6293L110.621 98.6586C111.555 99.9275 110.657 101.728 109.089 101.728H96.6232C96.0454 101.728 95.4987 101.464 95.1365 101.01L79.2355 81.0846C78.5831 80.2671 78.7012 79.0735 79.5007 78.4018L87.9579 71.2983C88.7997 70.5912 90.058 70.7425 90.7113 71.6293Z" fill="#0E0E0E"/>
</svg>
