<svg width="296" height="71" viewBox="0 0 296 71" fill="none" xmlns="http://www.w3.org/2000/svg">
<path fill-rule="evenodd" clip-rule="evenodd" d="M4 0C1.79086 0 0 1.79086 0 4V67C0 69.2091 1.79086 71 4 71H67C69.2091 71 71 69.2091 71 67V4C71 1.79086 69.2091 0 67 0H4ZM30.7494 19.0552C30.6254 18.9575 30.4693 18.8993 30.2997 18.8993C29.896 18.8993 29.5688 19.2292 29.5688 19.636V32.3152C29.5688 32.445 29.6021 32.5669 29.6605 32.6728L14.9197 51.3033C14.6652 51.625 14.8925 52.1007 15.3007 52.1007H45.2988C45.707 52.1007 45.9343 51.625 45.6797 51.3033L30.939 32.6728C30.9974 32.5669 31.0307 32.445 31.0307 32.3152V27.7887H41.9793C42.3908 27.7887 42.617 27.3063 42.3558 26.9857L39.7052 23.733C39.5576 23.5518 39.5576 23.2907 39.7052 23.1095L42.3558 19.8566C42.617 19.5361 42.3908 19.0538 41.9793 19.0538H30.787C30.7744 19.0538 30.7618 19.0542 30.7494 19.0552ZM56.5036 50.394L46.3341 36.5876C46.0004 36.1346 45.3577 36.0574 44.9277 36.4186L40.6078 40.047C40.1994 40.3901 40.1391 40.9997 40.4724 41.4173L48.5945 51.5952C48.7794 51.827 49.0587 51.9619 49.3539 51.9619H55.721C56.5219 51.9619 56.981 51.0421 56.5036 50.394Z" fill="#36BECE"/>
<path d="M101.084 49C100.652 49 100.28 48.856 99.968 48.568C99.68 48.256 99.536 47.884 99.536 47.452V25.6H96.26C96.044 25.6 95.864 25.528 95.72 25.384C95.576 25.24 95.504 25.06 95.504 24.844V22.18C95.504 21.964 95.576 21.784 95.72 21.64C95.864 21.496 96.044 21.424 96.26 21.424H102.308C102.74 21.424 103.1 21.58 103.388 21.892C103.7 22.18 103.856 22.54 103.856 22.972V44.824H107.132C107.348 44.824 107.528 44.896 107.672 45.04C107.816 45.184 107.888 45.364 107.888 45.58V48.244C107.888 48.46 107.816 48.64 107.672 48.784C107.528 48.928 107.348 49 107.132 49H101.084ZM119.296 49C117.712 49 116.272 48.616 114.976 47.848C113.68 47.08 112.648 46.048 111.88 44.752C111.112 43.432 110.728 41.98 110.728 40.396V36.508C110.728 34.9 111.112 33.448 111.88 32.152C112.648 30.856 113.68 29.824 114.976 29.056C116.272 28.288 117.712 27.904 119.296 27.904C120.88 27.904 122.32 28.288 123.616 29.056C124.912 29.824 125.944 30.856 126.712 32.152C127.48 33.448 127.864 34.9 127.864 36.508V38.92C127.864 39.352 127.708 39.724 127.396 40.036C127.108 40.324 126.748 40.468 126.316 40.468H115.048V40.648C115.048 41.416 115.24 42.124 115.624 42.772C116.008 43.42 116.524 43.936 117.172 44.32C117.82 44.704 118.528 44.896 119.296 44.896H125.02C125.236 44.896 125.416 44.968 125.56 45.112C125.704 45.256 125.776 45.436 125.776 45.652V48.244C125.776 48.46 125.704 48.64 125.56 48.784C125.416 48.928 125.236 49 125.02 49H119.296ZM115.048 36.58H123.544V36.256C123.544 35.464 123.352 34.756 122.968 34.132C122.584 33.484 122.068 32.968 121.42 32.584C120.796 32.2 120.088 32.008 119.296 32.008C118.528 32.008 117.82 32.2 117.172 32.584C116.524 32.968 116.008 33.484 115.624 34.132C115.24 34.756 115.048 35.464 115.048 36.256V36.58ZM137.627 49.468C136.283 49.468 135.095 49.216 134.063 48.712C133.055 48.184 132.263 47.464 131.687 46.552C131.111 45.616 130.823 44.536 130.823 43.312C130.823 41.656 131.399 40.288 132.551 39.208C133.703 38.104 135.323 37.384 137.411 37.048C137.747 37 138.227 36.94 138.851 36.868C139.499 36.772 140.123 36.688 140.723 36.616C141.347 36.52 141.767 36.448 141.983 36.4C142.439 36.328 142.775 36.172 142.991 35.932C143.207 35.668 143.315 35.32 143.315 34.888V34.708C143.267 33.844 142.871 33.172 142.127 32.692C141.383 32.188 140.495 31.936 139.463 31.936C138.503 31.936 137.663 32.116 136.943 32.476C136.223 32.836 135.647 33.364 135.215 34.06C135.023 34.372 134.795 34.528 134.531 34.528C134.339 34.528 134.183 34.48 134.063 34.384L132.047 33.016C131.831 32.872 131.723 32.668 131.723 32.404C131.723 32.332 131.747 32.224 131.795 32.08C132.491 30.76 133.523 29.74 134.891 29.02C136.259 28.276 137.807 27.904 139.535 27.904C141.143 27.904 142.535 28.204 143.711 28.804C144.911 29.404 145.835 30.256 146.483 31.36C147.155 32.44 147.491 33.712 147.491 35.176V48.244C147.491 48.46 147.419 48.64 147.275 48.784C147.131 48.928 146.951 49 146.735 49H144.287C143.783 49 143.531 48.748 143.531 48.244V46.84C142.715 47.728 141.815 48.388 140.831 48.82C139.847 49.252 138.779 49.468 137.627 49.468ZM137.951 45.616C138.911 45.616 139.799 45.376 140.615 44.896C141.455 44.416 142.127 43.792 142.631 43.024C143.159 42.256 143.423 41.428 143.423 40.54V39.82C142.895 39.892 142.259 39.988 141.515 40.108C140.771 40.204 140.063 40.3 139.391 40.396C138.719 40.468 138.215 40.54 137.879 40.612C135.911 40.972 134.927 41.824 134.927 43.168C134.927 43.912 135.203 44.512 135.755 44.968C136.307 45.4 137.039 45.616 137.951 45.616ZM160.098 49.468C158.682 49.468 157.362 49.096 156.138 48.352C154.938 47.584 153.966 46.576 153.222 45.328C152.502 44.056 152.142 42.676 152.142 41.188V36.184C152.142 34.696 152.502 33.328 153.222 32.08C153.942 30.808 154.902 29.8 156.102 29.056C157.326 28.288 158.67 27.904 160.134 27.904C161.046 27.904 161.922 28.048 162.762 28.336C163.626 28.6 164.37 29.008 164.994 29.56V22.18C164.994 21.964 165.066 21.784 165.21 21.64C165.354 21.496 165.534 21.424 165.75 21.424H168.558C168.774 21.424 168.954 21.496 169.098 21.64C169.242 21.784 169.314 21.964 169.314 22.18V48.244C169.314 48.46 169.242 48.64 169.098 48.784C168.954 48.928 168.774 49 168.558 49H166.218C166.002 49 165.822 48.928 165.678 48.784C165.534 48.64 165.462 48.46 165.462 48.244V46.516C164.814 47.5 164.022 48.244 163.086 48.748C162.174 49.228 161.178 49.468 160.098 49.468ZM160.71 45.328C161.502 45.328 162.222 45.136 162.87 44.752C163.518 44.368 164.034 43.852 164.418 43.204C164.802 42.556 164.994 41.848 164.994 41.08V36.292C164.994 35.5 164.802 34.792 164.418 34.168C164.034 33.52 163.518 33.004 162.87 32.62C162.222 32.236 161.502 32.044 160.71 32.044C159.942 32.044 159.234 32.236 158.586 32.62C157.938 33.004 157.422 33.52 157.038 34.168C156.654 34.792 156.462 35.5 156.462 36.292V41.08C156.462 41.848 156.654 42.556 157.038 43.204C157.422 43.852 157.938 44.368 158.586 44.752C159.234 45.136 159.942 45.328 160.71 45.328ZM182.282 56.452C180.794 56.452 179.45 56.272 178.25 55.912C177.074 55.576 176.138 55.024 175.442 54.256C174.746 53.488 174.398 52.468 174.398 51.196C174.398 50.476 174.518 49.84 174.758 49.288C174.998 48.736 175.334 48.232 175.766 47.776C175.31 47.416 174.974 46.996 174.758 46.516C174.566 46.012 174.47 45.472 174.47 44.896C174.47 44.056 174.674 43.276 175.082 42.556C175.49 41.836 176.03 41.212 176.702 40.684C175.958 40.06 175.37 39.292 174.938 38.38C174.506 37.444 174.29 36.412 174.29 35.284C174.29 33.772 174.65 32.464 175.37 31.36C176.09 30.256 177.05 29.404 178.25 28.804C179.45 28.18 180.782 27.868 182.246 27.868C182.798 27.868 183.326 27.916 183.83 28.012C184.334 28.084 184.814 28.204 185.27 28.372H192.362C192.578 28.372 192.758 28.444 192.902 28.588C193.046 28.732 193.118 28.912 193.118 29.128V31.504C193.118 31.72 193.046 31.9 192.902 32.044C192.758 32.188 192.578 32.26 192.362 32.26H189.554C189.962 33.196 190.166 34.204 190.166 35.284C190.166 36.772 189.806 38.068 189.086 39.172C188.366 40.276 187.406 41.128 186.206 41.728C185.03 42.328 183.71 42.628 182.246 42.628C181.646 42.628 181.07 42.58 180.518 42.484C179.99 42.364 179.474 42.22 178.97 42.052C178.754 42.268 178.574 42.508 178.43 42.772C178.286 43.036 178.214 43.324 178.214 43.636C178.214 44.14 178.406 44.476 178.79 44.644C179.198 44.812 179.714 44.92 180.338 44.968C180.722 44.992 181.178 45.016 181.706 45.04C182.258 45.04 182.822 45.04 183.398 45.04C183.974 45.04 184.466 45.052 184.874 45.076C185.666 45.1 186.458 45.172 187.25 45.292C188.066 45.412 188.81 45.64 189.482 45.976C190.154 46.312 190.682 46.804 191.066 47.452C191.474 48.076 191.678 48.916 191.678 49.972C191.678 51.484 191.258 52.708 190.418 53.644C189.578 54.604 188.45 55.312 187.034 55.768C185.618 56.224 184.034 56.452 182.282 56.452ZM182.606 52.744C183.47 52.744 184.25 52.672 184.946 52.528C185.666 52.408 186.23 52.18 186.638 51.844C187.07 51.532 187.286 51.088 187.286 50.512C187.286 49.816 186.998 49.384 186.422 49.216C185.87 49.072 185.27 49 184.622 49C184.022 49 183.434 49 182.858 49C182.282 49 181.694 49 181.094 49C180.734 49 180.386 49 180.05 49C179.714 48.976 179.33 48.94 178.898 48.892C178.754 49.132 178.646 49.372 178.574 49.612C178.526 49.876 178.502 50.14 178.502 50.404C178.502 51.052 178.682 51.544 179.042 51.88C179.426 52.216 179.93 52.444 180.554 52.564C181.178 52.684 181.862 52.744 182.606 52.744ZM182.246 38.848C183.398 38.848 184.286 38.524 184.91 37.876C185.558 37.204 185.882 36.34 185.882 35.284C185.882 34.228 185.558 33.364 184.91 32.692C184.286 31.996 183.398 31.648 182.246 31.648C181.118 31.648 180.218 31.996 179.546 32.692C178.898 33.364 178.574 34.228 178.574 35.284C178.574 36.364 178.898 37.228 179.546 37.876C180.218 38.524 181.118 38.848 182.246 38.848ZM204.198 49.468C202.614 49.468 201.174 49.084 199.878 48.316C198.582 47.548 197.55 46.528 196.782 45.256C196.014 43.984 195.63 42.58 195.63 41.044V36.328C195.63 34.792 196.014 33.388 196.782 32.116C197.55 30.844 198.582 29.824 199.878 29.056C201.174 28.288 202.614 27.904 204.198 27.904C205.782 27.904 207.222 28.288 208.518 29.056C209.814 29.824 210.846 30.844 211.614 32.116C212.382 33.388 212.766 34.792 212.766 36.328V41.044C212.766 42.58 212.382 43.984 211.614 45.256C210.846 46.528 209.814 47.548 208.518 48.316C207.222 49.084 205.782 49.468 204.198 49.468ZM204.198 45.292C204.99 45.292 205.698 45.1 206.322 44.716C206.97 44.332 207.486 43.816 207.87 43.168C208.254 42.52 208.446 41.812 208.446 41.044V36.328C208.446 35.536 208.254 34.828 207.87 34.204C207.486 33.556 206.97 33.04 206.322 32.656C205.698 32.272 204.99 32.08 204.198 32.08C203.43 32.08 202.722 32.272 202.074 32.656C201.426 33.04 200.91 33.556 200.526 34.204C200.142 34.828 199.95 35.536 199.95 36.328V41.044C199.95 41.812 200.142 42.52 200.526 43.168C200.91 43.816 201.426 44.332 202.074 44.716C202.722 45.1 203.43 45.292 204.198 45.292ZM223.127 49.468C221.783 49.468 220.595 49.216 219.563 48.712C218.555 48.184 217.763 47.464 217.187 46.552C216.611 45.616 216.323 44.536 216.323 43.312C216.323 41.656 216.899 40.288 218.051 39.208C219.203 38.104 220.823 37.384 222.911 37.048C223.247 37 223.727 36.94 224.351 36.868C224.999 36.772 225.623 36.688 226.223 36.616C226.847 36.52 227.267 36.448 227.483 36.4C227.939 36.328 228.275 36.172 228.491 35.932C228.707 35.668 228.815 35.32 228.815 34.888V34.708C228.767 33.844 228.371 33.172 227.627 32.692C226.883 32.188 225.995 31.936 224.963 31.936C224.003 31.936 223.163 32.116 222.443 32.476C221.723 32.836 221.147 33.364 220.715 34.06C220.523 34.372 220.295 34.528 220.031 34.528C219.839 34.528 219.683 34.48 219.563 34.384L217.547 33.016C217.331 32.872 217.223 32.668 217.223 32.404C217.223 32.332 217.247 32.224 217.295 32.08C217.991 30.76 219.023 29.74 220.391 29.02C221.759 28.276 223.307 27.904 225.035 27.904C226.643 27.904 228.035 28.204 229.211 28.804C230.411 29.404 231.335 30.256 231.983 31.36C232.655 32.44 232.991 33.712 232.991 35.176V48.244C232.991 48.46 232.919 48.64 232.775 48.784C232.631 48.928 232.451 49 232.235 49H229.787C229.283 49 229.031 48.748 229.031 48.244V46.84C228.215 47.728 227.315 48.388 226.331 48.82C225.347 49.252 224.279 49.468 223.127 49.468ZM223.451 45.616C224.411 45.616 225.299 45.376 226.115 44.896C226.955 44.416 227.627 43.792 228.131 43.024C228.659 42.256 228.923 41.428 228.923 40.54V39.82C228.395 39.892 227.759 39.988 227.015 40.108C226.271 40.204 225.563 40.3 224.891 40.396C224.219 40.468 223.715 40.54 223.379 40.612C221.411 40.972 220.427 41.824 220.427 43.168C220.427 43.912 220.703 44.512 221.255 44.968C221.807 45.4 222.539 45.616 223.451 45.616ZM241.147 49C240.715 49 240.343 48.856 240.031 48.568C239.743 48.256 239.599 47.884 239.599 47.452V25.6H236.323C236.107 25.6 235.927 25.528 235.783 25.384C235.639 25.24 235.567 25.06 235.567 24.844V22.18C235.567 21.964 235.639 21.784 235.783 21.64C235.927 21.496 236.107 21.424 236.323 21.424H242.371C242.803 21.424 243.163 21.58 243.451 21.892C243.763 22.18 243.919 22.54 243.919 22.972V44.824H247.195C247.411 44.824 247.591 44.896 247.735 45.04C247.879 45.184 247.951 45.364 247.951 45.58V48.244C247.951 48.46 247.879 48.64 247.735 48.784C247.591 48.928 247.411 49 247.195 49H241.147ZM255.427 49.864C254.587 49.864 253.867 49.576 253.267 49C252.691 48.4 252.403 47.692 252.403 46.876C252.403 46.036 252.691 45.328 253.267 44.752C253.867 44.176 254.587 43.888 255.427 43.888C256.243 43.888 256.939 44.176 257.515 44.752C258.091 45.328 258.379 46.036 258.379 46.876C258.379 47.692 258.091 48.4 257.515 49C256.939 49.576 256.243 49.864 255.427 49.864ZM267.252 49C266.748 49 266.316 48.832 265.956 48.496C265.62 48.136 265.452 47.704 265.452 47.2V32.476H262.536C262.32 32.476 262.14 32.404 261.996 32.26C261.852 32.116 261.78 31.936 261.78 31.72V29.128C261.78 28.912 261.852 28.732 261.996 28.588C262.14 28.444 262.32 28.372 262.536 28.372H267.972C268.476 28.372 268.896 28.552 269.232 28.912C269.592 29.248 269.772 29.668 269.772 30.172V44.896H272.688C272.904 44.896 273.084 44.968 273.228 45.112C273.372 45.256 273.444 45.436 273.444 45.652V48.244C273.444 48.46 273.372 48.64 273.228 48.784C273.084 48.928 272.904 49 272.688 49H267.252ZM266.388 25.96C266.172 25.96 265.992 25.888 265.848 25.744C265.704 25.6 265.632 25.42 265.632 25.204V21.28C265.632 21.064 265.704 20.884 265.848 20.74C265.992 20.596 266.172 20.524 266.388 20.524H268.836C269.052 20.524 269.232 20.596 269.376 20.74C269.52 20.884 269.592 21.064 269.592 21.28V25.204C269.592 25.42 269.52 25.6 269.376 25.744C269.232 25.888 269.052 25.96 268.836 25.96H266.388ZM284.882 49.468C283.298 49.468 281.858 49.084 280.562 48.316C279.266 47.548 278.234 46.528 277.466 45.256C276.698 43.984 276.314 42.58 276.314 41.044V36.328C276.314 34.792 276.698 33.388 277.466 32.116C278.234 30.844 279.266 29.824 280.562 29.056C281.858 28.288 283.298 27.904 284.882 27.904C286.466 27.904 287.906 28.288 289.202 29.056C290.498 29.824 291.53 30.844 292.298 32.116C293.066 33.388 293.45 34.792 293.45 36.328V41.044C293.45 42.58 293.066 43.984 292.298 45.256C291.53 46.528 290.498 47.548 289.202 48.316C287.906 49.084 286.466 49.468 284.882 49.468ZM284.882 45.292C285.674 45.292 286.382 45.1 287.006 44.716C287.654 44.332 288.17 43.816 288.554 43.168C288.938 42.52 289.13 41.812 289.13 41.044V36.328C289.13 35.536 288.938 34.828 288.554 34.204C288.17 33.556 287.654 33.04 287.006 32.656C286.382 32.272 285.674 32.08 284.882 32.08C284.114 32.08 283.406 32.272 282.758 32.656C282.11 33.04 281.594 33.556 281.21 34.204C280.826 34.828 280.634 35.536 280.634 36.328V41.044C280.634 41.812 280.826 42.52 281.21 43.168C281.594 43.816 282.11 44.332 282.758 44.716C283.406 45.1 284.114 45.292 284.882 45.292Z" fill="#36BECE"/>
</svg>
